# xmcd
#
# Track frame offsets: 
#        150
#        15250
#        30841
#        51522
#        71908
#        86904
#        102599
#        119909
#        133012
#        154344
#        171117
#        187513
#        204302
#        216089
#        232952
#        254684
#
# Disc length: 3619 seconds
#
# Revision: 0
# Processed by: cddbd v1.5.2PL0 Copyright (c) Steve Scherf et al.
# Submitted via: ExactAudioCopy v0.99pb5
#
DISCID=e20e2110
DTITLE=Various Artist - Country #1's
DYEAR=2011
DGENRE=Country
TTITLE0=High Maintenance Woman - Toby Keith
TTITLE1=Put A Girl In It - Brooks and Dunn
TTITLE2=Life Is A Highway - Rascal Flatts
TTITLE3=Beer In Mexico - Kenny Chesney
TTITLE4=Before He Cheats - Carrie Underwood
TTITLE5=Mud On The Tires - Brad Paisley
TTITLE6=It's Five O'clock Somewhere - Alan Jackson and Jimmy Buffett
TTITLE7=Gimme That Girl - Joe Nickols
TTITLE8=Stay - Sugarland
TTITLE9=Because Of You - Reba McEntire Ft. Kelly Clarkson
TTITLE10=Watching Airplanes - Gary Allan
TTITLE11=Red High Heels - Kellie Pickler
TTITLE12=Nothin' To Lose - Josh Gracin
TTITLE13=That's How Country Boys Roll - Billy Currington
TTITLE14=White Liar - Miranda Lambert
TTITLE15=Redneck Woman - Gretchen Wilson
EXTD=
EXTT0=
EXTT1=
EXTT2=
EXTT3=
EXTT4=
EXTT5=
EXTT6=
EXTT7=
EXTT8=
EXTT9=
EXTT10=
EXTT11=
EXTT12=
EXTT13=
EXTT14=
EXTT15=
PLAYORDER=
